<svg width="934" height="222" viewBox="0 0 934 222" fill="none" xmlns="http://www.w3.org/2000/svg">
<mask id="mask0_73_7" style="mask-type:alpha" maskUnits="userSpaceOnUse" x="0" y="0" width="934" height="222">
<rect width="934" height="222" fill="#D9D9D9"/>
</mask>
<g mask="url(#mask0_73_7)">
<path d="M101.492 0.333008H106.768C117.434 0.624026 128.066 2.49888 138.147 6.01121C149.182 9.82797 159.548 15.5504 168.681 22.8205C176.653 29.1612 183.687 36.6781 189.487 45.0519C189.519 45.1364 189.586 45.3067 189.62 45.3925C188.154 43.7135 186.703 42.0089 185.05 40.5042C181.112 36.7947 176.529 33.7692 171.567 31.6127C166.569 29.4375 161.188 28.1474 155.749 27.8174C148.051 27.3293 140.234 28.7508 133.222 31.9708C122.82 36.6982 114.274 45.355 109.697 55.8249C99.396 54.5415 88.7021 56.6899 79.702 61.8665C71.1605 66.7374 64.1519 74.2529 59.9141 83.1283C55.0285 93.2294 53.8483 105.047 56.5761 115.926C58.4818 123.666 62.3562 130.904 67.7072 136.807C74.4422 144.292 83.5509 149.612 93.3972 151.741C99.9056 153.168 106.705 153.238 113.244 151.959C123.025 150.062 132.156 145.037 139.027 137.826C143.434 133.218 146.953 127.747 149.236 121.791C154.015 122.164 158.847 121.779 163.514 120.692C164.793 131.278 168.438 141.561 174.071 150.612C176.783 154.978 179.935 159.053 183.477 162.776C184.644 163.994 185.827 165.202 187.101 166.31C180.994 174.421 173.703 181.639 165.521 187.651C157.421 193.602 148.456 198.378 138.984 201.748C129.16 205.261 118.799 207.223 108.38 207.667H99.8868C93.8398 207.386 87.8075 206.649 81.8947 205.344C70.7247 202.911 59.9758 198.585 50.2179 192.632C41.4901 187.313 33.5615 180.692 26.7568 173.068C19.4599 164.9 13.4625 155.572 9.0798 145.535C5.22549 136.727 2.6184 127.374 1.35508 117.843C0.849491 114.128 0.587977 110.386 0.461914 106.642V101.363C0.550426 99.3395 0.626869 97.3131 0.806576 95.2947C1.78021 83.4917 4.80573 71.8591 9.72085 61.0833C17.1854 44.6442 29.0447 30.2395 43.7217 19.7279C55.1733 11.4896 68.3295 5.629 82.1226 2.65847C88.4861 1.26909 94.9838 0.534172 101.492 0.333008ZM284.223 30.4138C287.166 30.1375 290.123 30.1483 293.074 30.1858C298.786 30.3146 304.509 30.8 310.11 31.9574C315.524 33.0933 320.887 34.8287 325.63 37.7255C323.131 44.8158 320.664 51.9183 318.165 59.0087C314.854 56.7892 311.024 55.5191 307.214 54.453C301.576 52.8866 295.719 52.1543 289.872 52.1329C286.844 52.1543 283.771 52.448 280.908 53.4874C278.981 54.1888 277.138 55.2321 275.727 56.7395C274.213 58.2898 273.351 60.4128 273.214 62.5639C272.99 65.0114 273.701 67.5179 275.157 69.4947C276.599 71.5184 278.67 72.9614 280.755 74.2556C284.711 76.7179 288.984 78.6316 293.356 80.2275C297.696 81.8543 301.979 83.6339 306.205 85.5396C307.702 86.2303 309.22 86.8807 310.668 87.6706C313.844 89.3818 316.738 91.604 319.246 94.1964C321.327 96.3636 323.238 98.7266 324.684 101.371C326.296 104.308 327.337 107.542 327.864 110.845C328.493 114.83 328.4 118.894 327.989 122.896C327.335 128.963 325.458 135.017 321.832 139.983C318.125 145.119 312.7 148.804 306.889 151.184C299.769 154.078 292.01 155.023 284.371 155.029C278.454 155.002 272.525 154.633 266.682 153.667C259.876 152.547 253.155 150.622 246.998 147.474C249.575 140.313 252.191 133.166 254.762 126.002C257.165 127.398 259.752 128.444 262.381 129.337C266.781 130.81 271.3 131.972 275.911 132.552C280.616 133.149 285.398 133.222 290.109 132.651C293.729 132.167 297.442 131.26 300.424 129.051C302.14 127.772 303.497 125.991 304.171 123.95C304.786 122.11 304.965 120.124 304.726 118.201C304.391 115.704 303.009 113.437 301.153 111.771C299.946 110.654 298.547 109.777 297.153 108.916C293.573 106.761 289.736 105.062 285.807 103.656C280.633 101.859 275.549 99.8089 270.568 97.5317C268.727 96.715 266.922 95.8097 265.231 94.71C261.028 92.0023 257.471 88.3478 254.691 84.2039C251.432 79.2874 249.922 73.3772 249.729 67.5233C249.536 61.3703 250.307 55.0632 252.874 49.4145C254.734 45.2839 257.6 41.616 261.162 38.8158C265.134 35.632 269.827 33.4165 274.724 32.0754C277.828 31.2198 281.017 30.6914 284.223 30.4138ZM723.243 30.3146C725.455 30.3146 727.7 30.6726 729.71 31.6342C733.298 33.3428 735.934 36.831 736.736 40.7081C737.148 42.7465 737.191 44.8722 736.79 46.916C736.056 50.6174 733.507 53.8817 730.146 55.5714C728.403 56.4472 726.465 56.883 724.525 56.997C722.014 57.1526 719.419 56.8348 717.147 55.7042C713.575 53.9192 711.069 50.2647 710.527 46.3273C710.161 43.6343 710.394 40.8288 711.389 38.2887C712.586 35.2954 714.872 32.6615 717.862 31.3754C719.549 30.6257 721.406 30.3427 723.243 30.3146ZM340.721 30.6498C342.311 30.5506 343.923 30.6364 345.523 30.6083C351.743 30.615 357.965 30.5935 364.185 30.619C364.303 30.8202 364.201 31.087 364.236 31.3137C364.244 46.2615 364.216 61.2108 364.251 76.1573C366.068 74.3575 368.015 72.6637 370.149 71.2381C374.531 68.2877 379.432 66.0964 384.559 64.817C387.629 64.0753 390.798 63.7468 393.953 63.787C399.598 63.8272 405.429 64.9028 410.227 68.0222C412.431 69.4598 414.363 71.3213 415.848 73.4979C417.314 75.6517 418.372 78.059 419.178 80.5306C421.188 86.8458 421.708 93.5218 421.802 100.113C421.806 118.484 421.79 136.857 421.81 155.227C420.526 155.311 419.23 155.239 417.943 155.263C411.403 155.266 404.864 155.259 398.325 155.267C398.261 152.262 398.316 149.25 398.298 146.242C398.297 134.752 398.298 123.265 398.298 111.775C398.275 108.11 398.387 104.44 398.104 100.782C397.872 97.9313 397.472 95.056 396.439 92.3725C395.693 90.4091 394.46 88.5906 392.734 87.3621C390.447 85.7032 387.59 85.0715 384.815 84.8999C382.193 84.7162 379.522 84.9683 377.039 85.8615C374.342 86.8042 371.916 88.4015 369.795 90.2965C367.241 92.579 365.077 95.4972 364.383 98.9103C364.171 99.6989 364.245 100.517 364.234 101.324V146.91C364.22 149.695 364.263 152.483 364.214 155.267C356.688 155.259 349.162 155.266 341.636 155.263C341.328 155.252 341.017 155.297 340.722 155.228C340.744 124.785 340.725 94.3439 340.732 63.901C340.725 52.8182 340.745 41.734 340.721 30.6498ZM470.578 63.9774C476.998 63.7119 483.517 64.2108 489.693 66.0789C494.581 67.5555 499.217 69.9668 503.078 73.3289C506.703 76.4832 509.66 80.3723 511.911 84.6116C514.602 89.7104 516.193 95.3403 516.917 101.047C517.38 104.563 517.484 108.116 517.405 111.657C517.228 117.86 516.261 124.093 514.017 129.9C512.199 134.628 509.502 139.029 506.015 142.712C502.477 146.494 498.099 149.468 493.311 151.436C487.802 153.717 481.834 154.72 475.895 154.915C469.482 155.104 462.973 154.527 456.845 152.534C451.889 150.945 447.235 148.343 443.411 144.796C440.052 141.667 437.289 137.915 435.182 133.842C432.569 128.77 431.033 123.19 430.348 117.54C429.896 113.85 429.793 110.123 429.937 106.412C430.176 100.524 431.116 94.6202 433.196 89.0881C434.948 84.3956 437.559 80.0076 440.969 76.3303C444.356 72.6476 448.534 69.7079 453.128 67.7258C458.622 65.3293 464.611 64.2443 470.578 63.9774ZM470.451 83.3174C467.97 83.6098 465.514 84.3125 463.34 85.561C461.316 86.7117 459.577 88.3425 458.244 90.2468C456.64 92.528 455.586 95.1539 454.891 97.8428C454.108 100.902 453.757 104.057 453.644 107.208C453.437 113.079 453.99 119.119 456.392 124.544C457.569 127.163 459.114 129.686 461.295 131.59C463.087 133.183 465.267 134.314 467.575 134.952C470.314 135.723 473.195 135.844 476.02 135.634C478.761 135.399 481.5 134.714 483.907 133.35C486.312 132.013 488.306 129.994 489.734 127.653C490.967 125.646 491.813 123.423 492.411 121.151C493.228 118.005 493.572 114.754 493.681 111.51C493.779 108.4 493.661 105.277 493.257 102.189C492.83 99.0525 492.081 95.9277 490.709 93.0618C489.589 90.7149 488.016 88.5557 485.976 86.9276C484.056 85.376 481.759 84.3339 479.366 83.76C476.453 83.076 473.417 82.9915 470.451 83.3174ZM567.869 64.4495C571.691 63.8152 575.591 63.783 579.444 64.1209C584.7 64.5943 589.971 66.0025 594.439 68.8859C598.666 71.5734 602.004 75.5417 604.165 80.0438C607.061 86.0412 608.25 92.7037 608.751 99.2992C609.39 108.523 608.971 117.998 605.926 126.805C605.038 129.19 604.263 131.622 603.188 133.934C600.962 138.868 597.852 143.463 593.744 147.024C589.891 150.403 585.189 152.762 580.227 154.004C574.116 155.554 567.702 155.544 561.495 154.617C557.111 153.952 552.789 152.849 548.641 151.28C548.631 161.401 548.635 171.524 548.639 181.645C548.602 181.786 548.729 182.137 548.46 182.082C541.065 182.088 533.671 182.086 526.276 182.082C526.267 142.957 526.272 103.832 526.274 64.7057C533.548 64.7057 540.822 64.707 548.095 64.7057C548.095 68.4567 548.111 72.2077 548.087 75.9601C549.797 73.8104 551.728 71.8255 553.941 70.1907C558.009 67.1491 562.871 65.2582 567.869 64.4495ZM564.891 82.9177C562.642 83.1578 560.403 83.6808 558.355 84.6572C556.369 85.5906 554.68 87.0416 553.202 88.6442C551.505 90.507 550.157 92.6917 549.304 95.0641C548.969 96.09 548.549 97.1361 548.635 98.2344C548.634 109.143 548.638 120.05 548.634 130.957C548.572 131.211 548.84 131.322 548.997 131.461C551.409 133.397 554.296 134.683 557.295 135.388C560.143 136.055 563.092 136.257 566.01 136.09C569.006 135.921 572.008 135.328 574.749 134.078C577.04 133.041 579.106 131.506 580.733 129.585C582.459 127.559 583.666 125.138 584.528 122.632C585.577 119.519 586.135 116.263 586.43 112.999C586.687 110.051 586.752 107.087 586.645 104.13C586.485 100.774 586.025 97.4029 584.928 94.2151C584.031 91.6443 582.675 89.186 580.71 87.2736C579.034 85.6013 576.916 84.4023 574.663 83.6956C571.514 82.7005 568.154 82.6187 564.891 82.9177ZM653.862 65.9556C659.632 63.8836 665.893 63.5912 671.949 64.2027C676.907 64.7271 681.853 66.1004 686.106 68.7625C689.555 70.9042 692.469 73.8814 694.583 77.3455C697.201 81.5954 698.715 86.4314 699.643 91.3103C700.655 96.7324 700.954 102.264 700.909 107.771C700.818 113.453 700.233 119.168 698.658 124.646C698.129 126.562 697.372 128.402 696.731 130.281C695.304 134.212 693.424 137.998 690.959 141.384C688.402 144.914 685.178 147.974 681.443 150.233C677.19 152.824 672.335 154.338 667.407 154.932C661.545 155.645 655.586 155.156 649.826 153.926C646.77 153.273 643.759 152.4 640.837 151.288C640.834 161.553 640.836 171.816 640.836 182.081C633.456 182.091 626.075 182.084 618.697 182.085C618.639 182.077 618.522 182.064 618.465 182.057C618.482 153.175 618.467 124.293 618.473 95.4114C618.467 85.1802 618.481 74.9476 618.466 64.7164C625.555 64.6989 632.647 64.6963 639.737 64.7177C639.718 68.4567 639.735 72.1957 639.729 75.9347C640.494 75.1877 641.156 74.3186 641.938 73.577C645.283 70.1948 649.372 67.5407 653.862 65.9556ZM656.242 83.0049C653.378 83.3751 650.522 84.2749 648.175 85.9996C644.469 88.7596 641.774 92.8888 640.842 97.4231C640.833 108.682 640.826 119.943 640.846 131.201C642.318 132.597 644.088 133.647 645.973 134.385C648.352 135.324 650.887 135.825 653.431 136.043C656.43 136.279 659.473 136.155 662.418 135.518C664.959 134.966 667.428 133.975 669.551 132.455C671.422 131.129 673.002 129.406 674.212 127.458C675.449 125.448 676.341 123.239 676.975 120.97C678.302 116.194 678.64 111.204 678.642 106.269C678.609 103.262 678.382 100.243 677.736 97.301C677.169 94.7274 676.275 92.1955 674.844 89.9706C673.749 88.2473 672.315 86.7305 670.615 85.5973C668.533 84.1891 666.094 83.3804 663.621 83.0197C661.176 82.6737 658.687 82.7018 656.242 83.0049ZM867.087 66.8595C873.022 65.0302 879.254 64.3422 885.449 64.2685C892.617 64.2322 899.797 64.597 906.903 65.5747C912.528 66.3525 918.113 67.5045 923.539 69.197V150.714C923.336 151.253 923.413 151.849 923.319 152.413C923.009 155.344 922.426 158.257 921.461 161.045C919.923 165.602 917.297 169.811 913.751 173.074C910.092 176.481 905.571 178.857 900.837 180.391C895.269 182.19 889.404 182.906 883.57 183.048C877.152 183.126 870.713 182.88 864.352 181.977C859.044 181.205 853.752 179.964 848.884 177.664C850.509 172.588 852.195 167.526 853.582 162.376C853.912 161.246 854.102 160.075 854.472 158.955C861.245 162.224 868.586 164.56 876.146 164.831C879.382 164.915 882.634 164.784 885.834 164.258C888.465 163.81 891.095 163.087 893.415 161.733C895.385 160.59 896.999 158.886 898.147 156.926C899.382 154.815 900.062 152.42 900.396 150.007C900.805 147.253 900.546 144.462 900.678 141.694C900.295 143.224 899.465 144.619 898.318 145.7C896.622 147.332 894.458 148.379 892.254 149.136C889.494 150.056 886.608 150.532 883.719 150.799C880.239 151.111 876.737 151.095 873.25 150.944C870.061 150.76 866.851 150.591 863.729 149.873C859.381 148.905 855.213 146.977 851.818 144.07C848.014 140.846 845.25 136.529 843.454 131.905C841.309 126.399 840.379 120.483 840.198 114.596C840.152 112.718 840.233 110.842 840.223 108.965C840.195 105.301 840.431 101.631 841.004 98.0105C841.82 92.8714 843.364 87.8047 845.939 83.2624C848.179 79.2887 851.222 75.7643 854.855 73.0017C858.505 70.2162 862.707 68.2073 867.087 66.8595ZM878.599 83.4998C876.071 84.0148 873.598 84.9281 871.461 86.3912C869.418 87.7578 867.721 89.6071 866.447 91.7033C865.07 93.959 864.168 96.4776 863.582 99.0471C862.87 102.167 862.624 105.372 862.586 108.565C862.585 111.75 862.79 114.95 863.436 118.075C863.998 120.772 864.895 123.43 866.354 125.782C867.618 127.807 869.289 129.6 871.307 130.891C873.596 132.384 876.307 133.146 879.022 133.309C882.025 133.423 885.061 133.24 887.99 132.525C890.733 131.857 893.335 130.607 895.542 128.844C897.48 127.295 899.172 125.444 900.633 123.444C900.645 110.839 900.641 98.2331 900.634 85.6281C896.961 84.4399 893.195 83.4569 889.337 83.1498C885.763 82.8654 882.131 82.793 878.599 83.4998ZM712.69 64.4052C720.076 64.4039 727.461 64.4012 734.846 64.4066C734.846 94.5907 734.848 124.776 734.845 154.961C727.458 154.961 720.072 154.963 712.685 154.96C712.688 124.775 712.678 94.5907 712.69 64.4052ZM752.013 64.707C759.477 64.7043 766.943 64.7057 774.408 64.7057C774.42 69.8099 774.39 74.9141 774.422 80.017C775.258 78.936 776.028 77.7921 776.931 76.7594C779.103 74.1872 781.624 71.8953 784.464 70.0821C790.16 66.3861 797.03 64.7861 803.774 64.8733C807.303 64.8612 810.86 65.1938 814.272 66.1393C817.202 66.9547 820.014 68.2971 822.349 70.2658C824.193 71.8094 825.734 73.7125 826.866 75.8368C828.409 78.696 829.335 81.8449 829.992 85.0139C831.274 91.3895 831.42 97.9193 831.405 104.399V155.262C823.75 155.263 816.097 155.267 808.443 155.261C808.432 140.498 808.442 125.736 808.439 110.973C808.428 106.628 808.56 102.258 807.911 97.9461C807.479 95.1512 806.768 92.288 805.058 89.98C803.993 88.5289 802.549 87.3635 800.914 86.6151C799.288 85.8641 797.509 85.498 795.734 85.3492C792.127 85.042 788.41 85.5302 785.112 87.0644C780.709 89.1337 776.966 92.7721 775.105 97.301C774.834 97.9957 774.552 98.6944 774.413 99.428C774.402 108.37 774.412 117.314 774.409 126.258C774.39 134.665 774.469 143.075 774.308 151.48C774.33 152.741 774.248 154 774.275 155.262C766.853 155.265 759.433 155.266 752.013 155.261V64.707Z" fill="#2099E2"/>
<path d="M133.222 31.9708C140.233 28.7509 148.05 27.3293 155.748 27.8175C161.188 28.1474 166.568 29.4375 171.566 31.6128C176.529 33.7692 181.111 36.7948 185.05 40.5042C186.702 42.0089 188.153 43.7135 189.619 45.3925C190.729 46.7953 191.665 48.3215 192.603 49.8436C193.825 51.8767 195.076 53.9018 196.092 56.0502C196.153 56.5357 196.402 56.9649 196.57 57.4181C198.738 62.8791 199.902 68.7558 199.868 74.6351C200.011 85.313 196.255 95.9693 189.551 104.269C183.031 112.447 173.707 118.339 163.513 120.692C158.846 121.779 154.014 122.164 149.236 121.791C151.412 116.174 152.534 110.157 152.542 104.134C152.52 97.8884 151.331 91.6389 148.964 85.8548C144.939 75.8877 137.489 67.3597 128.175 62.002C122.52 58.711 116.185 56.6269 109.696 55.8249C114.273 45.355 122.819 36.6982 133.222 31.9708Z" fill="#F12F1E"/>
<path d="M196.093 56.0503C196.645 56.9448 197.064 57.9158 197.541 58.8518C204.032 72.2159 207.566 86.9988 207.845 101.851C208.117 114.267 206.15 126.735 202.025 138.453C198.519 148.43 193.459 157.858 187.101 166.31C185.827 165.202 184.644 163.994 183.477 162.776C179.934 159.054 176.782 154.978 174.071 150.612C168.438 141.561 164.793 131.278 163.514 120.692C173.707 118.339 183.032 112.447 189.551 104.269C196.255 95.9694 200.012 85.313 199.868 74.6352C199.903 68.7558 198.739 62.8792 196.57 57.4182C196.403 56.9649 196.153 56.5358 196.093 56.0503Z" fill="#FDC21D"/>
</g>
</svg>
